<svg preserveAspectRatio="none" width="100%" height="100%" overflow="visible" style="display: block;" viewBox="0 0 71.1 6.3915" fill="none" xmlns="http://www.w3.org/2000/svg">
<g id="Group 26086193">
<path id="Vector" d="M0.357712 4.28097H0V1.41782H1.014C1.14281 1.40717 1.2724 1.42481 1.39368 1.46949C1.51496 1.51417 1.62501 1.58482 1.71612 1.6765C1.8629 1.8383 1.9436 2.0493 1.94227 2.26775C1.94562 2.38105 1.92541 2.49381 1.88291 2.59889C1.84042 2.70397 1.77658 2.79909 1.69543 2.87822C1.60947 2.95928 1.50818 3.02236 1.39751 3.06373C1.28684 3.10511 1.16901 3.12395 1.05096 3.11916H0.357712V4.28097ZM0.357712 2.82353H1.01548C1.09012 2.82729 1.16477 2.81616 1.23506 2.79078C1.30536 2.7654 1.3699 2.72629 1.42493 2.67572C1.47578 2.62239 1.51514 2.55919 1.54057 2.49003C1.566 2.42087 1.57695 2.34723 1.57274 2.27366C1.57287 2.13413 1.52366 1.99905 1.4338 1.8923C1.38423 1.8357 1.32235 1.79121 1.25291 1.76226C1.18347 1.7333 1.10831 1.72065 1.03322 1.72527H0.35032L0.357712 2.82353Z" fill="var(--fill-0, #333333)"/>
<path id="Vector_2" d="M5.20305 4.28071H4.83499L4.3073 3.04352H3.48841V4.28071H3.15287V1.41757H4.28069C4.40548 1.40756 4.53095 1.42485 4.64837 1.46824C4.76579 1.51164 4.87235 1.58009 4.96064 1.66885C5.10081 1.81671 5.18 2.01204 5.18236 2.21576C5.18241 2.37216 5.13946 2.52557 5.05819 2.6592C4.96395 2.80592 4.81767 2.91154 4.64875 2.95483L5.20305 4.28071ZM3.48102 2.75232H4.22896C4.30974 2.75894 4.39101 2.7484 4.46743 2.72139C4.54385 2.69439 4.6137 2.65154 4.6724 2.59564C4.77004 2.4924 4.82313 2.35488 4.82021 2.21281C4.82419 2.14676 4.81292 2.08069 4.78729 2.01969C4.76166 1.95869 4.72235 1.9044 4.6724 1.86101C4.56186 1.77427 4.42404 1.72973 4.28365 1.73537H3.49137L3.48102 2.75232Z" fill="var(--fill-0, #333333)"/>
<path id="Vector_3" d="M7.50893 4.33679C7.3413 4.34316 7.17477 4.30724 7.02469 4.23233C6.8746 4.15741 6.74579 4.04592 6.65013 3.90813C6.43806 3.59962 6.33032 3.23133 6.34267 2.85717C6.32678 2.473 6.44025 2.09461 6.66491 1.78257C6.76502 1.65175 6.8938 1.54562 7.04134 1.47235C7.18887 1.39907 7.35125 1.3606 7.51598 1.35989C7.68071 1.35917 7.84341 1.39624 7.99158 1.46823C8.13975 1.54023 8.26944 1.64523 8.37068 1.77518C8.59285 2.07884 8.70589 2.44867 8.69144 2.82465C8.70016 3.20154 8.59171 3.57185 8.38103 3.88448C8.28693 4.0286 8.1572 4.14596 8.0044 4.22521C7.85161 4.30445 7.68094 4.34289 7.50893 4.33679ZM7.51779 4.04116C7.63816 4.0438 7.75694 4.01336 7.8612 3.95316C7.96545 3.89295 8.05118 3.80528 8.10905 3.69971C8.26173 3.42993 8.33501 3.12247 8.32043 2.81283C8.33854 2.50985 8.2621 2.20873 8.10166 1.95108C8.03879 1.85473 7.95254 1.77587 7.85096 1.72186C7.74939 1.66784 7.63579 1.64042 7.52075 1.64215C7.40268 1.64071 7.28639 1.67094 7.18397 1.72969C7.08154 1.78844 6.99673 1.87357 6.93836 1.97621C6.78308 2.23971 6.70808 2.5428 6.72256 2.8483C6.70935 3.1492 6.78492 3.44734 6.93984 3.70562C6.99756 3.80829 7.08144 3.89384 7.18296 3.95356C7.28449 4.01328 7.40001 4.04503 7.51779 4.04559V4.04116Z" fill="var(--fill-0, #333333)"/>
<path id="Vector_4" d="M9.97744 4.2806V1.41746H10.9368C11.1153 1.40816 11.2936 1.44075 11.4573 1.51261C11.6211 1.58447 11.7658 1.69361 11.8798 1.83133C12.1084 2.11718 12.2279 2.47504 12.2168 2.8409C12.2283 3.20899 12.1124 3.56976 11.8887 3.86229C11.7925 3.99295 11.6666 4.09879 11.5214 4.17103C11.3761 4.24327 11.2157 4.27982 11.0535 4.27765L9.97744 4.2806ZM10.3352 3.97758H10.9161C11.0498 3.98577 11.1836 3.96092 11.3055 3.90525C11.4274 3.84957 11.5338 3.76477 11.6152 3.65831C11.7851 3.41237 11.8693 3.1173 11.8547 2.81872C11.8581 2.54772 11.7787 2.28212 11.627 2.05749C11.5477 1.94469 11.4406 1.85435 11.316 1.79529C11.1914 1.73623 11.0536 1.71045 10.9161 1.72047H10.3352V3.97758Z" fill="var(--fill-0, #333333)"/>
<path id="Vector_5" d="M15.1302 1.4181H15.4259V3.28646C15.4259 3.66191 15.3337 3.93093 15.1495 4.09353C14.9481 4.26239 14.6906 4.34943 14.4281 4.33742C14.2943 4.34867 14.1595 4.33216 14.0324 4.28892C13.9052 4.24568 13.7883 4.17664 13.6891 4.08613C13.5294 3.91762 13.4511 3.65156 13.4511 3.28646V1.4181H13.8088V3.28646C13.7969 3.44702 13.8232 3.60811 13.8856 3.75651C13.9386 3.84882 14.0215 3.92026 14.1207 3.95901C14.2252 4.00211 14.3372 4.02421 14.4503 4.02405C14.5415 4.03034 14.633 4.01812 14.7194 3.98815C14.8058 3.95818 14.8852 3.91106 14.9529 3.84963C15.0815 3.69156 15.143 3.48939 15.1243 3.28646L15.1302 1.4181Z" fill="var(--fill-0, #333333)"/>
<path id="Vector_6" d="M18.5625 3.31694L18.8891 3.38937C18.7325 4.02201 18.3792 4.33784 17.8293 4.33685C17.6612 4.34144 17.4947 4.30313 17.3455 4.22555C17.1962 4.14797 17.0692 4.03366 16.9764 3.89341C16.763 3.57497 16.6549 3.19753 16.6675 2.81437C16.6489 2.43399 16.7628 2.05894 16.9897 1.75308C17.0927 1.62332 17.2248 1.51959 17.3752 1.45027C17.5257 1.38094 17.6904 1.34796 17.8559 1.35398C18.393 1.35398 18.7379 1.66045 18.8906 2.27338L18.5536 2.3399C18.4294 1.88463 18.1969 1.657 17.8559 1.657C17.738 1.65263 17.6211 1.67978 17.5172 1.73564C17.4132 1.7915 17.3261 1.87405 17.2647 1.9748C17.1116 2.24431 17.0392 2.55218 17.0562 2.86168C17.0419 3.1579 17.116 3.4517 17.2691 3.70569C17.3278 3.8032 17.4109 3.88378 17.5101 3.9395C17.6094 3.99521 17.7214 4.02416 17.8352 4.02349C18.2018 4.03384 18.4427 3.79438 18.5625 3.31694Z" fill="var(--fill-0, #333333)"/>
<path id="Vector_7" d="M21.9312 3.96492V4.28125H20.0805V1.4181H21.8913V1.73295H20.4382V2.642H21.5912V2.93762H20.4382V3.97232L21.9312 3.96492Z" fill="var(--fill-0, #333333)"/>
<path id="Vector_8" d="M23.1787 4.2806V1.41746H24.138C24.3166 1.40816 24.4949 1.44075 24.6586 1.51261C24.8224 1.58447 24.967 1.69361 25.0811 1.83133C25.3097 2.11718 25.4292 2.47504 25.4181 2.8409C25.4296 3.20899 25.3137 3.56976 25.0899 3.86229C24.9938 3.99295 24.8679 4.09879 24.7226 4.17103C24.5774 4.24327 24.417 4.27982 24.2548 4.27765L23.1787 4.2806ZM23.5364 3.97758H24.1173C24.2511 3.98577 24.3849 3.96092 24.5068 3.90525C24.6287 3.84957 24.7351 3.76477 24.8165 3.65831C24.9864 3.41237 25.0706 3.1173 25.0559 2.81872C25.0594 2.54772 24.98 2.28212 24.8283 2.05749C24.7491 1.94458 24.642 1.85417 24.5173 1.79509C24.3927 1.73602 24.2549 1.71031 24.1173 1.72047H23.5364V3.97758Z" fill="var(--fill-0, #333333)"/>
<path id="Vector_9" d="M28.5222 4.28087V1.41772H29.653C29.7673 1.40824 29.8825 1.42194 29.9914 1.45801C30.1004 1.49408 30.201 1.55176 30.2871 1.62762C30.3527 1.69045 30.4049 1.76595 30.4404 1.84954C30.476 1.93314 30.4942 2.02308 30.494 2.11392C30.494 2.43763 30.324 2.65197 29.987 2.75839C30.1626 2.7958 30.3196 2.89361 30.4305 3.0348C30.5279 3.16475 30.5799 3.32319 30.5783 3.48563C30.581 3.59053 30.5622 3.69489 30.523 3.79225C30.4839 3.88961 30.4252 3.97793 30.3506 4.05176C30.2552 4.1341 30.1445 4.19674 30.0247 4.23606C29.905 4.27538 29.7786 4.29061 29.653 4.28087H28.5222ZM28.8666 2.64753H29.4904C29.7476 2.64753 29.9205 2.59727 30.0077 2.49972C30.0928 2.40414 30.1391 2.28029 30.1378 2.15236C30.1399 2.09223 30.1283 2.03241 30.104 1.97737C30.0797 1.92234 30.0432 1.87352 29.9974 1.83456C29.8784 1.74452 29.7308 1.7009 29.582 1.71187H28.8666V2.64753ZM28.8666 3.9675H29.6337C29.7904 3.9774 29.9452 3.92896 30.0683 3.83151C30.1174 3.7868 30.1561 3.73186 30.1816 3.67056C30.2072 3.60926 30.219 3.54311 30.2161 3.47676C30.2172 3.37801 30.1938 3.28053 30.1481 3.19296C30.1036 3.10837 30.0359 3.03814 29.953 2.99045C29.8356 2.9363 29.7067 2.91193 29.5776 2.91951H28.8622L28.8666 3.9675Z" fill="var(--fill-0, #333333)"/>
<path id="Vector_10" d="M33.7356 1.4181L32.7792 3.07657V4.28125H32.42V3.07952L31.4622 1.42106H31.8849L32.6432 2.73512L33.4074 1.42106L33.7356 1.4181Z" fill="var(--fill-0, #333333)"/>
<path id="Vector_11" d="M39.3702 6.20312V5.13296C40.3621 5.13296 41.1765 4.81959 41.7944 4.20025C42.9237 3.06505 43.1631 1.13608 43.1602 0.488661H44.2303C44.2303 0.516746 44.2303 3.28233 42.5527 4.96149C41.7279 5.78333 40.6562 6.20312 39.3702 6.20312Z" fill="var(--fill-0, #333333)"/>
<path id="Vector_12" d="M54.1132 2.37217C54.1413 1.99968 54.1413 1.65824 54.1413 1.38774H54.1132V1.35965H52.0039V0.0810686H50.9322V1.35965H48.9973V3.31227H50.066V2.42539H53.0223C52.8523 4.13115 52.1458 5.0949 49.9567 5.0949V6.16506C53.3046 6.16506 53.9713 4.01586 54.1028 2.42539L54.1132 2.37217Z" fill="var(--fill-0, #333333)"/>
<path id="Vector_13" d="M71.1 3.15394H67.4416V4.22411H71.1V3.15394Z" fill="var(--fill-0, #333333)"/>
<path id="Vector_14" d="M63.0515 2.57496L62.6997 1.56392L59.5675 2.65478V0.456801H58.4915V4.44776C58.4915 5.34499 59.0044 6.3915 60.4485 6.3915H62.8667V5.32134H60.4544C59.8632 5.32134 59.5675 5.02571 59.5675 4.44776V3.7826L63.0515 2.57496Z" fill="var(--fill-0, #333333)"/>
<path id="Vector_15" d="M63.267 0.297726L62.6438 0.573256L63.1453 1.70751L63.7685 1.43198L63.267 0.297726Z" fill="var(--fill-0, #333333)"/>
<path id="Vector_16" d="M64.4446 1.26354e-08L63.8214 0.275527L64.3228 1.40978L64.9461 1.13425L64.4446 1.26354e-08Z" fill="var(--fill-0, #333333)"/>
</g>
</svg>
