<svg preserveAspectRatio="none" width="100%" height="100%" overflow="visible" style="display: block;" viewBox="0 0 48.2404 17.4459" fill="none" xmlns="http://www.w3.org/2000/svg">
<g id="logotype">
<path id="Vector" d="M8.29713 4.11607C8.14685 4.11504 7.99858 4.08142 7.86256 4.01752L3.45377 1.95799C3.20718 1.84274 3.01648 1.63425 2.92362 1.37839C2.83075 1.12253 2.84333 0.84026 2.95859 0.593677C3.07384 0.347093 3.28234 0.156393 3.5382 0.0635298C3.79406 -0.0293334 4.07633 -0.016754 4.32291 0.0985014L8.73269 2.16099C8.9442 2.25989 9.11564 2.42798 9.21869 2.6375C9.32174 2.84701 9.35023 3.08541 9.29946 3.31331C9.24869 3.54121 9.12169 3.74497 8.93944 3.89092C8.7572 4.03688 8.53062 4.1163 8.29713 4.11607Z" fill="var(--fill-0, #333333)"/>
<path id="Vector_2" d="M5.39111 17.1028C5.13818 17.1028 4.87967 17.0949 4.61558 17.0792C4.34614 17.0598 4.09523 16.9349 3.91732 16.7316C3.73941 16.5283 3.64887 16.2631 3.66535 15.9934C3.68183 15.7238 3.804 15.4715 4.00534 15.2914C4.20667 15.1113 4.47093 15.0179 4.74073 15.0315C7.5078 15.199 9.47077 14.318 9.98319 12.6763C10.1668 12.0798 10.1486 11.4393 9.9312 10.8543C9.71384 10.2692 9.30954 9.77213 8.78097 9.44019C7.0614 8.39071 4.45594 9.32292 1.81302 11.9333C1.61923 12.125 1.35723 12.2319 1.08464 12.2304C0.812057 12.2289 0.551223 12.1192 0.359522 11.9254C0.16782 11.7316 0.0609553 11.4696 0.0624338 11.197C0.0639122 10.9245 0.173613 10.6636 0.367405 10.4719C2.13427 8.72773 3.89523 7.61913 5.601 7.17864C7.58466 6.66721 9.00368 7.17175 9.8472 7.68712C10.7649 8.25952 11.4678 9.11912 11.8465 10.1322C12.2252 11.1454 12.2585 12.2552 11.9412 13.2892C11.1825 15.7075 8.76028 17.1018 5.39308 17.1018L5.39111 17.1028Z" fill="var(--fill-0, #333333)"/>
<path id="Vector_3" d="M1.0444 12.2519C0.849125 12.2525 0.657723 12.1974 0.492562 12.0933C-0.231726 11.638 -0.0129609 10.8496 0.242264 9.93517C0.388107 9.40896 0.607856 8.6896 0.892645 7.79878C1.3755 6.29306 1.89285 4.78635 1.89778 4.77058C1.98612 4.51315 2.1731 4.30136 2.41759 4.18179C2.66209 4.06222 2.94407 4.04468 3.2015 4.13301C3.45893 4.22135 3.67072 4.40833 3.79029 4.65283C3.90986 4.89732 3.92741 5.1793 3.83907 5.43673C3.10098 7.58692 2.28604 10.1303 2.08895 10.9787C2.12695 11.1485 2.1211 11.3251 2.07197 11.492C2.02284 11.6589 1.93203 11.8105 1.80811 11.9326C1.6058 12.1359 1.33118 12.2507 1.0444 12.2519Z" fill="var(--fill-0, #333333)"/>
<path id="Vector_4" d="M18.3652 5.24356H18.1277C17.8554 5.24251 17.5947 5.13333 17.4028 4.94003C17.211 4.74672 17.1038 4.48513 17.1049 4.21281C17.1059 3.94048 17.2151 3.67972 17.4084 3.4879C17.6017 3.29607 17.8633 3.1889 18.1356 3.18994H18.1425C21.0811 3.21359 24.0373 2.78493 25.8673 2.07149C26.1208 1.97257 26.4032 1.9784 26.6524 2.08771C26.9016 2.19702 27.0972 2.40085 27.1961 2.65436C27.295 2.90787 27.2892 3.1903 27.1799 3.4395C27.0706 3.68871 26.8667 3.88428 26.6132 3.9832C24.6089 4.76464 21.4673 5.24356 18.3652 5.24356Z" fill="var(--fill-0, #333333)"/>
<path id="Vector_5" d="M19.3999 8.92801C18.9742 8.92801 18.581 8.91815 18.2292 8.89549C17.9596 8.87604 17.7085 8.75102 17.5304 8.54756C17.3523 8.3441 17.2617 8.07863 17.2782 7.80876C17.2947 7.5389 17.4169 7.28642 17.6184 7.10614C17.8199 6.92585 18.0844 6.83231 18.3544 6.84581C20.8308 6.99757 25.681 6.5423 27.9574 5.45933C28.2032 5.34172 28.4856 5.32657 28.7426 5.41722C28.9996 5.50786 29.21 5.69687 29.3276 5.94267C29.4452 6.18847 29.4603 6.47093 29.3697 6.72789C29.2791 6.98486 29.09 7.1953 28.8442 7.3129C26.4871 8.43628 22.2498 8.92801 19.4048 8.92801H19.3999Z" fill="var(--fill-0, #333333)"/>
<path id="Vector_6" d="M27.6696 12.8984C27.4495 12.8986 27.2353 12.8277 27.0587 12.6964C25.1509 11.2794 23.4924 8.97546 22.1315 5.84773C21.5301 4.47664 21.0391 3.0597 20.6632 1.61042C20.6065 1.34814 20.6547 1.07408 20.7975 0.846895C20.9403 0.619712 21.1664 0.457458 21.4273 0.394864C21.6883 0.33227 21.9633 0.374311 22.1937 0.511986C22.424 0.649662 22.5913 0.872033 22.6597 1.1315C22.6834 1.23004 24.398 8.16642 28.2845 11.0508C28.4579 11.1794 28.5863 11.3595 28.6514 11.5653C28.7165 11.7712 28.7149 11.9923 28.647 12.1973C28.5791 12.4022 28.4483 12.5805 28.2731 12.7067C28.098 12.833 27.8875 12.9007 27.6716 12.9004L27.6696 12.8984Z" fill="var(--fill-0, #333333)"/>
<path id="Vector_7" d="M23.2796 17.4459C19.2689 17.4459 17.9533 15.7707 17.5217 14.669C16.9728 13.2608 17.4557 11.558 18.6431 10.7056C18.7525 10.6254 18.8767 10.5677 19.0085 10.5359C19.1404 10.504 19.2772 10.4986 19.4112 10.5199C19.5451 10.5413 19.6735 10.589 19.7889 10.6603C19.9042 10.7316 20.0043 10.825 20.0834 10.9352C20.1624 11.0455 20.2188 11.1703 20.2493 11.3025C20.2797 11.4346 20.2837 11.5715 20.2609 11.7052C20.2381 11.8389 20.1891 11.9668 20.1166 12.0814C20.044 12.196 19.9495 12.2951 19.8384 12.373C19.4591 12.6449 19.1959 13.316 19.4324 13.923C19.9941 15.3637 22.7829 15.5638 25.2011 15.2681C25.4712 15.2352 25.7434 15.3109 25.9576 15.4786C26.1719 15.6463 26.3108 15.8923 26.3437 16.1624C26.3767 16.4325 26.3009 16.7046 26.1332 16.9189C25.9655 17.1332 25.7196 17.2721 25.4495 17.305C24.7303 17.3956 24.0063 17.4427 23.2815 17.4459H23.2796Z" fill="var(--fill-0, #333333)"/>
<path id="Vector_8" d="M34.68 6.10968H34.474C34.2019 6.10838 33.9415 5.99905 33.7501 5.80574C33.5586 5.61244 33.4518 5.351 33.4531 5.07893C33.4544 4.80687 33.5637 4.54646 33.757 4.35501C33.9503 4.16355 34.2118 4.05673 34.4839 4.05804H34.4947C36.9583 4.0807 39.4494 3.6412 40.9798 2.90805C41.2252 2.79044 41.5073 2.77514 41.764 2.86551C42.0206 2.95587 42.2309 3.14451 42.3485 3.38992C42.4661 3.63533 42.4814 3.9174 42.3911 4.17409C42.3007 4.43078 42.1121 4.64106 41.8667 4.75867C40.1156 5.59825 37.379 6.11165 34.6809 6.11165L34.68 6.10968Z" fill="var(--fill-0, #333333)"/>
<path id="Vector_9" d="M34.4129 17.1029C34.2165 17.1029 34.0243 17.0466 33.859 16.9405C33.6938 16.8345 33.5624 16.6833 33.4805 16.5048C33.3987 16.3264 33.3697 16.1281 33.3972 15.9337C33.4246 15.7393 33.5073 15.5568 33.6354 15.408C35.8812 12.7976 37.2765 6.90283 37.0252 1.07012C37.0136 0.798185 37.1105 0.532769 37.2945 0.332258C37.4786 0.131747 37.7348 0.0125683 38.0067 0.000938267C38.2787 -0.0106918 38.5441 0.0861789 38.7446 0.270242C38.9451 0.454305 39.0643 0.710483 39.0759 0.982417C39.3518 7.39259 37.7949 13.7279 35.1914 16.7492C35.0948 16.8608 34.9752 16.9501 34.8408 17.0112C34.7064 17.0723 34.5605 17.1036 34.4129 17.1029Z" fill="var(--fill-0, #333333)"/>
<path id="Vector_10" d="M46.7938 8.72488C46.632 8.72519 46.4725 8.68667 46.3287 8.61255C45.4605 8.16911 42.7752 8.00454 41.6065 8.44601C41.3574 8.52203 41.0886 8.50052 40.8548 8.38583C40.6209 8.27115 40.4393 8.07186 40.3469 7.82833C40.2544 7.58481 40.258 7.31524 40.3568 7.07424C40.4557 6.83324 40.6424 6.63882 40.8793 6.53035C42.518 5.90953 45.7985 6.03764 47.2609 6.78656C47.4662 6.89142 47.6303 7.06235 47.7267 7.2718C47.8231 7.48126 47.8462 7.71706 47.7922 7.94124C47.7383 8.16541 47.6105 8.3649 47.4293 8.50759C47.2482 8.65028 47.0244 8.72786 46.7938 8.72784V8.72488Z" fill="var(--fill-0, #333333)"/>
<path id="Vector_11" d="M44.7648 16.9405C43.8236 16.9497 42.8886 16.7874 42.0056 16.4616C40.7246 15.9689 39.816 15.1067 39.3873 13.9774C39.2908 13.723 39.2992 13.4406 39.4108 13.1924C39.5225 12.9442 39.7281 12.7505 39.9825 12.654C40.237 12.5574 40.5193 12.5658 40.7675 12.6775C41.0157 12.7891 41.2094 12.9947 41.306 13.2492C41.5247 13.8276 42.0096 14.2641 42.7437 14.5479C44.1489 15.0899 46.039 14.9007 46.7731 14.5263C47.0146 14.4116 47.2913 14.3956 47.5444 14.4817C47.7975 14.5679 48.007 14.7493 48.1284 14.9875C48.2498 15.2257 48.2736 15.5018 48.1945 15.7573C48.1155 16.0127 47.94 16.2272 47.7053 16.3552C47.0007 16.7139 45.9197 16.9396 44.7638 16.9396L44.7648 16.9405Z" fill="var(--fill-0, #333333)"/>
</g>
</svg>
